<svg xmlns="http://www.w3.org/2000/svg" width="645" height="498" viewBox="0 0 645 498">
  <g fill="none">
    <g transform="translate(.114 348.428)">
      <path fill="#00B9AC" d="M41.1525932,119.271072 C44.6617291,119.271072 48.0645275,118.766137 51.3609884,117.756266 C54.6574494,116.746395 57.4222231,115.28474 59.6553095,113.3713 L59.6553095,113.3713 L54.8701243,102.369022 C51.5736633,105.026577 47.5860089,106.355355 42.9071611,106.355355 C38.6536631,106.355355 35.3837865,105.132879 33.0975314,102.687929 C30.8112762,100.242978 29.6681486,96.7350052 29.6681486,92.1640105 L29.6681486,92.1640105 L29.6681486,46.4009119 L53.9130872,46.4009119 L53.9130872,33.8041007 L29.6681486,33.8041007 L29.6681486,15.3075173 L14.3555558,15.3075173 L14.3555558,33.8041007 L-2.59053609e-14,33.8041007 L-2.59053609e-14,46.4009119 L14.3555558,46.4009119 L14.3555558,92.8018237 C14.3555558,101.306 16.6949797,107.843586 21.3738275,112.41458 C26.0526753,116.985575 32.6455972,119.271072 41.1525932,119.271072 Z M93.4706187,118.314353 L93.4706187,76.21868 C93.4706187,67.0766904 95.8366269,60.0341695 100.568643,55.091117 C105.30066,50.1480645 111.813829,47.6765383 120.10815,47.6765383 C121.596874,47.6765383 122.766586,47.7296894 123.617286,47.8359916 L123.617286,47.8359916 L123.617286,33.0068342 C116.173664,33.0068342 109.846586,34.2824606 104.636051,36.8337135 C99.4255159,39.3849664 95.4910302,43.1055435 92.832594,47.9954449 L92.832594,47.9954449 L92.832594,33.8041007 L78.1580259,33.8041007 L78.1580259,118.314353 L93.4706187,118.314353 Z M167.002965,119.271072 C173.48955,119.271072 179.09885,118.234626 183.830867,116.161733 C188.562883,114.08884 192.204941,111.085803 194.75704,107.152621 L194.75704,107.152621 L194.75704,118.314353 L209.272102,118.314353 L209.272102,67.2892949 C209.272102,55.9149591 206.161731,47.3576317 199.940991,41.6173127 C193.72025,35.8769937 184.76132,33.0068342 173.0642,33.0068342 C166.258603,33.0068342 159.825188,33.9369785 153.763953,35.797267 C147.702718,37.6575556 142.492183,40.3416863 138.132348,43.849659 L138.132348,43.849659 L144.512595,55.330297 C147.809056,52.5664397 151.849879,50.3606689 156.635064,48.7129848 C161.420249,47.0653006 166.311772,46.2414585 171.309632,46.2414585 C178.753254,46.2414585 184.389139,47.9954449 188.217287,51.5034176 C192.045435,55.0113903 193.959509,60.060745 193.959509,66.6514816 L193.959509,66.6514816 L193.959509,69.6810944 L169.71457,69.6810944 C157.911113,69.6810944 149.29778,71.9400163 143.87457,76.4578599 C138.45136,80.9757036 135.739755,86.9552025 135.739755,94.3963568 C135.739755,101.837511 138.584282,107.843586 144.273335,112.41458 C149.962389,116.985575 157.538932,119.271072 167.002965,119.271072 Z M169.555064,107.471528 C163.706504,107.471528 159.133994,106.249052 155.837533,103.804102 C152.541072,101.359151 150.892842,98.0106317 150.892842,93.7585435 C150.892842,85.0417628 157.379426,80.6833725 170.352595,80.6833725 L170.352595,80.6833725 L193.959509,80.6833725 L193.959509,92.4829171 C192.045435,97.2665163 188.961649,100.960518 184.708151,103.564922 C180.454653,106.169326 175.403624,107.471528 169.555064,107.471528 Z M274.988646,119.271072 C282.644942,119.271072 289.477124,117.703115 295.48519,114.5672 C301.493256,111.431285 306.145519,106.940017 309.44198,101.093396 L309.44198,101.093396 L297.798029,93.7585435 C295.139593,97.7980273 291.843132,100.82764 287.908646,102.847382 C283.974161,104.867124 279.614325,105.876995 274.82914,105.876995 C269.299592,105.876995 264.328317,104.654519 259.915313,102.209569 C255.502308,99.764618 252.046341,96.2832209 249.547411,91.7653772 C247.048481,87.2475336 245.799016,82.01215 245.799016,76.0592266 C245.799016,70.2126055 247.048481,65.030373 249.547411,60.5125294 C252.046341,55.9946857 255.502308,52.5132886 259.915313,50.0683379 C264.328317,47.6233872 269.299592,46.4009119 274.82914,46.4009119 C279.614325,46.4009119 283.974161,47.4107828 287.908646,49.4305247 C291.843132,51.4502665 295.139593,54.4798793 297.798029,58.5193631 L297.798029,58.5193631 L309.44198,51.0250577 C306.145519,45.1784365 301.493256,40.713744 295.48519,37.6309801 C289.477124,34.5482162 282.644942,33.0068342 274.988646,33.0068342 C266.375313,33.0068342 258.692432,34.8405472 251.940004,38.5079732 C245.187576,42.1753993 239.897288,47.277905 236.069139,53.8154906 C232.240991,60.3530761 230.326917,67.7676548 230.326917,76.0592266 C230.326917,84.3507985 232.240991,91.7653772 236.069139,98.3029627 C239.897288,104.840548 245.187576,109.96963 251.940004,113.690207 C258.692432,117.410784 266.375313,119.271072 274.988646,119.271072 Z M343.416795,118.314353 L343.416795,95.1936233 L360.962475,78.9293861 L392.704203,118.314353 L411.525932,118.314353 L372.446919,68.7243746 L408.016796,33.8041007 L389.51408,33.8041007 L343.416795,75.8997733 L343.416795,3.88451615e-14 L328.104202,3.88451615e-14 L328.104202,118.314353 L343.416795,118.314353 Z"/>
      <path fill="#A6E1DB" d="M440.556056,149.248294 L440.556056,105.558088 C444.065192,110.022781 448.345274,113.424451 453.396303,115.7631 C458.447332,118.101748 464.003464,119.271072 470.064698,119.271072 C478.252682,119.271072 485.589966,117.463935 492.076551,113.84966 C498.563135,110.235385 503.640748,105.159455 507.30939,98.6218694 C510.978032,92.0842838 512.812353,84.5634029 512.812353,76.0592266 C512.812353,67.5550504 510.978032,60.060745 507.30939,53.5763106 C503.640748,47.0918762 498.563135,42.0425215 492.076551,38.4282466 C485.589966,34.8139717 478.252682,33.0068342 470.064698,33.0068342 C463.790789,33.0068342 458.048566,34.202734 452.838031,36.5945336 C447.627496,38.9863332 443.32083,42.5208814 439.918031,47.1981784 L439.918031,47.1981784 L439.918031,33.8041007 L425.243463,33.8041007 L425.243463,149.248294 L440.556056,149.248294 Z M468.788649,105.876995 C463.471776,105.876995 458.633422,104.627944 454.273587,102.129842 C449.913752,99.6317403 446.510953,96.1237676 444.065192,91.6059239 C441.61943,87.0880803 440.39655,81.9058478 440.39655,76.0592266 C440.39655,70.2126055 441.646015,65.0569486 444.144945,60.592256 C446.643875,56.1275635 450.046673,52.6461663 454.35334,50.1480645 C458.660007,47.6499627 463.471776,46.4009119 468.788649,46.4009119 C474.211859,46.4009119 479.076797,47.6233872 483.383464,50.0683379 C487.690131,52.5132886 491.092929,55.9946857 493.591859,60.5125294 C496.090789,65.030373 497.340254,70.2126055 497.340254,76.0592266 C497.340254,81.9058478 496.090789,87.0880803 493.591859,91.6059239 C491.092929,96.1237676 487.690131,99.6317403 483.383464,102.129842 C479.076797,104.627944 474.211859,105.876995 468.788649,105.876995 Z M557.952601,119.271072 C564.439185,119.271072 570.048486,118.234626 574.780502,116.161733 C579.512519,114.08884 583.154577,111.085803 585.706675,107.152621 L585.706675,107.152621 L585.706675,118.314353 L600.221737,118.314353 L600.221737,67.2892949 C600.221737,55.9149591 597.111367,47.3576317 590.890626,41.6173127 C584.669885,35.8769937 575.710955,33.0068342 564.013836,33.0068342 C557.208239,33.0068342 550.774823,33.9369785 544.713588,35.797267 C538.652354,37.6575556 533.441819,40.3416863 529.081983,43.849659 L529.081983,43.849659 L535.46223,55.330297 C538.758691,52.5664397 542.799514,50.3606689 547.5847,48.7129848 C552.369885,47.0653006 557.261407,46.2414585 562.259268,46.2414585 C569.702889,46.2414585 575.338774,47.9954449 579.166922,51.5034176 C582.99507,55.0113903 584.909145,60.060745 584.909145,66.6514816 L584.909145,66.6514816 L584.909145,69.6810944 L560.664206,69.6810944 C548.860749,69.6810944 540.247415,71.9400163 534.824206,76.4578599 C529.400996,80.9757036 526.689391,86.9552025 526.689391,94.3963568 C526.689391,101.837511 529.533917,107.843586 535.222971,112.41458 C540.912025,116.985575 548.488568,119.271072 557.952601,119.271072 Z M560.5047,107.471528 C554.65614,107.471528 550.08363,106.249052 546.787169,103.804102 C543.490708,101.359151 541.842477,98.0106317 541.842477,93.7585435 C541.842477,85.0417628 548.329062,80.6833725 561.302231,80.6833725 L561.302231,80.6833725 L584.909145,80.6833725 L584.909145,92.4829171 C582.99507,97.2665163 579.911284,100.960518 575.657786,103.564922 C571.404288,106.169326 566.353259,107.471528 560.5047,107.471528 Z M643.926429,118.314353 L643.926429,3.88451615e-14 L628.613837,3.88451615e-14 L628.613837,118.314353 L643.926429,118.314353 Z"/>
    </g>
    <g transform="translate(171.81)">
      <path fill="#A6E1DB" d="M262.955503,23.6761835 L249.323676,37.3034925 C192.830925,-12.5395952 107.516375,-12.4209773 50.8847136,37.579394 L37.2907524,23.9899387 L23.997893,37.278392 L37.5918542,50.8678473 C-12.4250957,107.480738 -12.5437529,192.767009 37.3158612,249.241035 L23.6840338,262.868344 L36.9399686,276.119885 L50.571796,262.492576 C107.071193,312.32902 192.379097,312.217046 249.010759,262.216675 L262.60472,275.80613 L275.897579,262.517677 L262.303618,248.928221 C312.31394,192.308705 312.439225,107.029059 262.579611,50.5550335 L276.211438,36.9277245 L262.955503,23.6761835 Z M248.503357,236.084582 L235.59497,223.180474 L222.311908,236.459133 L235.220296,249.363241 C185.995704,292.056564 112.562806,292.158662 63.4568217,249.602054 L76.4011653,236.662001 L63.155001,223.420227 L50.2106574,236.360281 C7.63993893,187.270572 7.74207092,113.862015 50.4495495,64.6537394 L63.3579367,77.5578479 L76.6409984,64.279189 L63.7326112,51.3750805 C112.957203,8.68175765 186.3901,8.57965952 235.496085,51.1362675 L222.551741,64.0763206 L235.797906,77.3180943 L248.742249,64.3780412 C291.312968,113.467749 291.210836,186.876307 248.503357,236.084582 Z"/>
      <path fill="#A6E1DB" d="M176.621956,186.586532 L155.003173,186.586532 L155.003173,166.854185 L176.621956,166.854185 L176.621956,186.586532 Z M133.420163,187.250954 L111.80138,187.250954 L111.80138,167.518608 L133.420163,167.518608 L133.420163,187.250954 Z M90.2183701,186.586532 L68.5995867,186.586532 L68.5995867,166.854185 L90.2183701,166.854185 L90.2183701,186.586532 Z" transform="rotate(-45 122.61 177.053)"/>
      <path fill="#00B9AC" d="M92.610963,56.404298 L240.110963,130.845298 L243.0025,130.845328 L241.556963,131.575298 L243.0025,132.304956 L240.110963,132.304298 L92.610963,206.745986 L138.437963,131.575298 L92.610963,56.404298 Z" transform="rotate(-45 167.807 131.575)"/>
    </g>
  </g>
</svg>
