<svg xmlns="http://www.w3.org/2000/svg" width="516" height="516" viewBox="0 0 516 516">
  <g fill="none" fill-rule="evenodd" transform="translate(8 8)">
    <rect width="500" height="500" fill="#FFF" stroke="#A6E1DB" stroke-width="15" rx="100"/>
    <g fill-rule="nonzero" transform="translate(90 90)">
      <path fill="#A6E1DB" d="M279.75564,25.1971986 L265.25288,39.6999587 C205.150826,-13.345169 114.385559,-13.2189308 54.1357204,39.9935847 L39.6732457,25.5311101 L25.5311101,39.6732457 L39.9935847,54.1357204 C-13.2189308,114.385559 -13.345169,205.150826 39.6999587,265.25288 L25.1971986,279.75564 L39.3000505,293.858492 L53.8028106,279.355732 C113.911935,332.393788 204.670131,332.274621 264.91997,279.062106 L279.382445,293.52458 L293.52458,279.382445 L279.062106,264.91997 C332.26757,204.66308 332.400859,113.904864 279.355732,53.8028106 L293.858492,39.3000505 L279.75564,25.1971986 Z M264.380151,251.251225 L250.647051,237.518125 L236.515339,251.649837 L250.248439,265.382936 C197.878905,310.818981 119.754405,310.927638 67.5110561,265.637091 L81.2824094,251.865738 L67.1899522,237.773281 L53.4185989,251.544634 C8.128052,199.301285 8.23670916,121.176785 53.6727538,68.8072513 L67.4058534,82.5403508 L81.5375653,68.4086389 L67.8044658,54.6755394 C120.173999,9.23949467 198.298499,9.13083751 250.541849,54.4213844 L236.770495,68.1927377 L250.862953,82.2851949 L264.634306,68.5138416 C309.924853,120.757191 309.816196,198.881691 264.380151,251.251225 Z"/>
      <path fill="#A6E1DB" d="M186.451727,200.027845 L163.451727,200.027845 L163.451727,179.027845 L186.451727,179.027845 L186.451727,200.027845 Z M140.489786,200.734952 L117.489786,200.734952 L117.489786,179.734952 L140.489786,179.734952 L140.489786,200.734952 Z M94.5278451,200.027845 L71.5278451,200.027845 L71.5278451,179.027845 L94.5278451,179.027845 L94.5278451,200.027845 Z" transform="rotate(-45 128.99 189.881)"/>
      <path fill="#00B9AC" d="M98.5278451,60.0278451 L255.451845,139.250845 L258.527845,139.251146 L256.989845,140.027845 L258.527845,140.804544 L255.451845,140.803845 L98.5278451,220.027845 L147.283845,140.027845 L98.5278451,60.0278451 Z" transform="rotate(-45 178.528 140.028)"/>
    </g>
  </g>
</svg>
