<svg xmlns="http://www.w3.org/2000/svg" width="1836" height="328" viewBox="0 0 1836 328">
  <g fill="none">
    <g transform="translate(422.25 .3)">
      <path fill="#00B9AC" d="M90.3,261.8 C98,261.8 105.466667,260.691667 112.7,258.475 C119.933333,256.258333 126,253.05 130.9,248.85 L130.9,248.85 L120.4,224.7 C113.166667,230.533333 104.416667,233.45 94.15,233.45 C84.8166667,233.45 77.6416667,230.766667 72.625,225.4 C67.6083333,220.033333 65.1,212.333333 65.1,202.3 L65.1,202.3 L65.1,101.85 L118.3,101.85 L118.3,74.2 L65.1,74.2 L65.1,33.6 L31.5,33.6 L31.5,74.2 L-5.68434189e-14,74.2 L-5.68434189e-14,101.85 L31.5,101.85 L31.5,203.7 C31.5,222.366667 36.6333333,236.716667 46.9,246.75 C57.1666667,256.783333 71.6333333,261.8 90.3,261.8 Z M205.1,259.7 L205.1,167.3 C205.1,147.233333 210.291667,131.775 220.675,120.925 C231.058333,110.075 245.35,104.65 263.55,104.65 C266.816667,104.65 269.383333,104.766667 271.25,105 L271.25,105 L271.25,72.45 C254.916667,72.45 241.033333,75.25 229.6,80.85 C218.166667,86.45 209.533333,94.6166667 203.7,105.35 L203.7,105.35 L203.7,74.2 L171.5,74.2 L171.5,259.7 L205.1,259.7 Z M366.45,261.8 C380.683333,261.8 392.991667,259.525 403.375,254.975 C413.758333,250.425 421.75,243.833333 427.35,235.2 L427.35,235.2 L427.35,259.7 L459.2,259.7 L459.2,147.7 C459.2,122.733333 452.375,103.95 438.725,91.35 C425.075,78.75 405.416667,72.45 379.75,72.45 C364.816667,72.45 350.7,74.4916667 337.4,78.575 C324.1,82.6583333 312.666667,88.55 303.1,96.25 L303.1,96.25 L317.1,121.45 C324.333333,115.383333 333.2,110.541667 343.7,106.925 C354.2,103.308333 364.933333,101.5 375.9,101.5 C392.233333,101.5 404.6,105.35 413,113.05 C421.4,120.75 425.6,131.833333 425.6,146.3 L425.6,146.3 L425.6,152.95 L372.4,152.95 C346.5,152.95 327.6,157.908333 315.7,167.825 C303.8,177.741667 297.85,190.866667 297.85,207.2 C297.85,223.533333 304.091667,236.716667 316.575,246.75 C329.058333,256.783333 345.683333,261.8 366.45,261.8 Z M372.05,235.9 C359.216667,235.9 349.183333,233.216667 341.95,227.85 C334.716667,222.483333 331.1,215.133333 331.1,205.8 C331.1,186.666667 345.333333,177.1 373.8,177.1 L373.8,177.1 L425.6,177.1 L425.6,203 C421.4,213.5 414.633333,221.608333 405.3,227.325 C395.966667,233.041667 384.883333,235.9 372.05,235.9 Z M603.4,261.8 C620.2,261.8 635.191667,258.358333 648.375,251.475 C661.558333,244.591667 671.766667,234.733333 679,221.9 L679,221.9 L653.45,205.8 C647.616667,214.666667 640.383333,221.316667 631.75,225.75 C623.116667,230.183333 613.55,232.4 603.05,232.4 C590.916667,232.4 580.008333,229.716667 570.325,224.35 C560.641667,218.983333 553.058333,211.341667 547.575,201.425 C542.091667,191.508333 539.35,180.016667 539.35,166.95 C539.35,154.116667 542.091667,142.741667 547.575,132.825 C553.058333,122.908333 560.641667,115.266667 570.325,109.9 C580.008333,104.533333 590.916667,101.85 603.05,101.85 C613.55,101.85 623.116667,104.066667 631.75,108.5 C640.383333,112.933333 647.616667,119.583333 653.45,128.45 L653.45,128.45 L679,112 C671.766667,99.1666667 661.558333,89.3666667 648.375,82.6 C635.191667,75.8333333 620.2,72.45 603.4,72.45 C584.5,72.45 567.641667,76.475 552.825,84.525 C538.008333,92.575 526.4,103.775 518,118.125 C509.6,132.475 505.4,148.75 505.4,166.95 C505.4,185.15 509.6,201.425 518,215.775 C526.4,230.125 538.008333,241.383333 552.825,249.55 C567.641667,257.716667 584.5,261.8 603.4,261.8 Z M753.55,259.7 L753.55,208.95 L792.05,173.25 L861.7,259.7 L903,259.7 L817.25,150.85 L895.3,74.2 L854.7,74.2 L753.55,166.6 L753.55,8.52651283e-14 L719.95,8.52651283e-14 L719.95,259.7 L753.55,259.7 Z"/>
      <path fill="#A6E1DB" d="M966.7,327.6 L966.7,231.7 C974.4,241.5 983.791667,248.966667 994.875,254.1 C1005.95833,259.233333 1018.15,261.8 1031.45,261.8 C1049.41667,261.8 1065.51667,257.833333 1079.75,249.9 C1093.98333,241.966667 1105.125,230.825 1113.175,216.475 C1121.225,202.125 1125.25,185.616667 1125.25,166.95 C1125.25,148.283333 1121.225,131.833333 1113.175,117.6 C1105.125,103.366667 1093.98333,92.2833333 1079.75,84.35 C1065.51667,76.4166667 1049.41667,72.45 1031.45,72.45 C1017.68333,72.45 1005.08333,75.075 993.65,80.325 C982.216667,85.575 972.766667,93.3333333 965.3,103.6 L965.3,103.6 L965.3,74.2 L933.1,74.2 L933.1,327.6 L966.7,327.6 Z M1028.65,232.4 C1016.98333,232.4 1006.36667,229.658333 996.8,224.175 C987.233333,218.691667 979.766667,210.991667 974.4,201.075 C969.033333,191.158333 966.35,179.783333 966.35,166.95 C966.35,154.116667 969.091667,142.8 974.575,133 C980.058333,123.2 987.525,115.558333 996.975,110.075 C1006.425,104.591667 1016.98333,101.85 1028.65,101.85 C1040.55,101.85 1051.225,104.533333 1060.675,109.9 C1070.125,115.266667 1077.59167,122.908333 1083.075,132.825 C1088.55833,142.741667 1091.3,154.116667 1091.3,166.95 C1091.3,179.783333 1088.55833,191.158333 1083.075,201.075 C1077.59167,210.991667 1070.125,218.691667 1060.675,224.175 C1051.225,229.658333 1040.55,232.4 1028.65,232.4 Z M1224.3,261.8 C1238.53333,261.8 1250.84167,259.525 1261.225,254.975 C1271.60833,250.425 1279.6,243.833333 1285.2,235.2 L1285.2,235.2 L1285.2,259.7 L1317.05,259.7 L1317.05,147.7 C1317.05,122.733333 1310.225,103.95 1296.575,91.35 C1282.925,78.75 1263.26667,72.45 1237.6,72.45 C1222.66667,72.45 1208.55,74.4916667 1195.25,78.575 C1181.95,82.6583333 1170.51667,88.55 1160.95,96.25 L1160.95,96.25 L1174.95,121.45 C1182.18333,115.383333 1191.05,110.541667 1201.55,106.925 C1212.05,103.308333 1222.78333,101.5 1233.75,101.5 C1250.08333,101.5 1262.45,105.35 1270.85,113.05 C1279.25,120.75 1283.45,131.833333 1283.45,146.3 L1283.45,146.3 L1283.45,152.95 L1230.25,152.95 C1204.35,152.95 1185.45,157.908333 1173.55,167.825 C1161.65,177.741667 1155.7,190.866667 1155.7,207.2 C1155.7,223.533333 1161.94167,236.716667 1174.425,246.75 C1186.90833,256.783333 1203.53333,261.8 1224.3,261.8 Z M1229.9,235.9 C1217.06667,235.9 1207.03333,233.216667 1199.8,227.85 C1192.56667,222.483333 1188.95,215.133333 1188.95,205.8 C1188.95,186.666667 1203.18333,177.1 1231.65,177.1 L1231.65,177.1 L1283.45,177.1 L1283.45,203 C1279.25,213.5 1272.48333,221.608333 1263.15,227.325 C1253.81667,233.041667 1242.73333,235.9 1229.9,235.9 Z M1412.95,259.7 L1412.95,8.52651283e-14 L1379.35,8.52651283e-14 L1379.35,259.7 L1412.95,259.7 Z"/>
    </g>
    <g transform="translate(0 4)">
      <path fill="#A6E1DB" d="M279.75564,25.1971986 L265.25288,39.6999587 C205.150826,-13.345169 114.385559,-13.2189308 54.1357204,39.9935847 L39.6732457,25.5311101 L25.5311101,39.6732457 L39.9935847,54.1357204 C-13.2189308,114.385559 -13.345169,205.150826 39.6999587,265.25288 L25.1971986,279.75564 L39.3000505,293.858492 L53.8028106,279.355732 C113.911935,332.393788 204.670131,332.274621 264.91997,279.062106 L279.382445,293.52458 L293.52458,279.382445 L279.062106,264.91997 C332.26757,204.66308 332.400859,113.904864 279.355732,53.8028106 L293.858492,39.3000505 L279.75564,25.1971986 Z M264.380151,251.251225 L250.647051,237.518125 L236.515339,251.649837 L250.248439,265.382936 C197.878905,310.818981 119.754405,310.927638 67.5110561,265.637091 L81.2824094,251.865738 L67.1899522,237.773281 L53.4185989,251.544634 C8.128052,199.301285 8.23670916,121.176785 53.6727538,68.8072513 L67.4058534,82.5403508 L81.5375653,68.4086389 L67.8044658,54.6755394 C120.173999,9.23949467 198.298499,9.13083751 250.541849,54.4213844 L236.770495,68.1927377 L250.862953,82.2851949 L264.634306,68.5138416 C309.924853,120.757191 309.816196,198.881691 264.380151,251.251225 Z"/>
      <path fill="#A6E1DB" d="M186.451727,200.027845 L163.451727,200.027845 L163.451727,179.027845 L186.451727,179.027845 L186.451727,200.027845 Z M140.489786,200.734952 L117.489786,200.734952 L117.489786,179.734952 L140.489786,179.734952 L140.489786,200.734952 Z M94.5278451,200.027845 L71.5278451,200.027845 L71.5278451,179.027845 L94.5278451,179.027845 L94.5278451,200.027845 Z" transform="rotate(-45 128.99 189.881)"/>
      <path fill="#00B9AC" d="M98.5278451,60.0278451 L255.451845,139.250845 L258.527845,139.251146 L256.989845,140.027845 L258.527845,140.804544 L255.451845,140.803845 L98.5278451,220.027845 L147.283845,140.027845 L98.5278451,60.0278451 Z" transform="rotate(-45 178.528 140.028)"/>
    </g>
  </g>
</svg>
